PathFileType	4	(X/Y/Z)	pose_F01_0-91.trc
DataRate	CameraRate	NumFrames	NumMarkers	Units	OrigDataRate	OrigDataStartFrame	OrigNumFrames
30	30	6	21	m	30	65	91
Frame#	Time	CHip			RHip			RKnee			RAnkle			RBigToe			RSmallToe			RHeel			LHip			LKnee			LAnkle			LBigToe			LSmallToe			LHeel			Neck			Nose			RShoulder			RElbow			RWrist			LShoulder			LElbow			LWrist			
		X1	Y1	Z1	X2	Y2	Z2	X3	Y3	Z3	X4	Y4	Z4	X5	Y5	Z5	X6	Y6	Z6	X7	Y7	Z7	X8	Y8	Z8	X9	Y9	Z9	X10	Y10	Z10	X11	Y11	Z11	X12	Y12	Z12	X13	Y13	Z13	X14	Y14	Z14	X15	Y15	Z15	X16	Y16	Z16	X17	Y17	Z17	X18	Y18	Z18	X19	Y19	Z19	X20	Y20	Z20	X21	Y21	Z21	
65	2.1666666666666665	-0.20524007267700498	1.839385433133736	-0.565370128595686	-0.2206774961015368	1.8355656723624125	-0.5049411460286874																-0.18790650510124238	1.8392073909218183	-0.6223675891847689	-0.190258331834039	1.71352496154572	-0.5778567781369797	-0.19434940519583083	1.59232885887785	-0.5612865784720615	-0.20346296283923251	1.566381402719849	-0.6228543514019125	-0.19266594214272711	1.573262418414095	-0.6349896933087755	-0.19296670168172123	1.5875521799170909	-0.5622560302252336	-1.6319987088433379	1.889152048915687	0.99943538097493	-0.21145388290066902	2.047827696158436	-0.591401427330602	-1.7620007231508104	1.8877542602495496	1.2094918249450255	-0.24051747666588358	1.899555958597404	-0.45061499097146696	-0.25505529469220106	1.8326924234907838	-0.4520661834350089	-0.17573020507178325	1.9879634178141912	-0.6469135409744596	-0.15916908496452445	1.9233918152058311	-0.6652884988172696	-0.14327462319432452	1.858775726561741	-0.7094945888809652
66	2.2	-0.20334732067852748	1.8390215366385532	-0.5678454751968425	-0.2195821383705919	1.837354482039126	-0.510788403103084																-0.18589335996329495	1.8389580344862742	-0.624950976190846	-0.1902769784688869	1.7167637893358558	-0.578336166637823	-0.19450138564622996	1.5928547117003906	-0.5613258705229858	-0.20385251197261026	1.5656292572037007	-0.6223282400706079	-0.19295344626177083	1.5720813846282347	-0.6344856388943009	-0.19296670168172123	1.5875521799170909	-0.5622560302252336	-1.6101017876173527	1.889352468112142	0.9627645358661789	-0.21157636529814883	2.049511292286705	-0.6107094226219826	-1.7608483019565337	1.8877812287292288	1.207972057775243	-0.23749285579030774	1.9003539161770666	-0.4669150642435033	-0.2434264348185923	1.8303958366266317	-0.476798884989363	-0.1732062186211215	1.987302271236062	-0.6578462483134602	-0.16137580514706515	1.9188849683367415	-0.683158259818126	-0.1444232986822992	1.853149275709935	-0.7119297639051668
67	2.2333333333333334	-0.2045383282920013	1.8367093673940218	-0.5706411538612292	-0.2187410328354052	1.8346671375507642	-0.5157992562357694																-0.18609636445277142	1.8381883764776685	-0.6248560549757589	-0.19062115198991159	1.713138021172465	-0.5775983029483113	-0.19456581740079443	1.5932572297235799	-0.560906106300079	-0.2007939137275129	1.5656087250811161	-0.6213889871369518	-0.19191555223770665	1.5742334951740118	-0.6316129746112806	-0.19296670168172123	1.5875521799170909	-0.5622560302252336	-1.5993493677966166	1.8892477337307754	0.9447050670765096	-0.21040014584031405	2.049504211134521	-0.6161152615391552	-1.7505094754952022	1.8875517495228364	1.1901704415498418	-0.23509110622114573	1.8942543155404323	-0.4746785732639459	-0.23179757494498351	1.82809924976248	-0.5015315865437172	-0.1731414842985742	1.9872227214910743	-0.658090431276365	-0.16335695240724746	1.9158898552082748	-0.6894823022819168	-0.1523118931367172	1.8505871959791529	-0.7077716344433563
68	2.2666666666666666	-0.20356764909038302	1.8367555589153912	-0.5675555826770262	-0.2148410765093375	1.835679611858379	-0.5114882476389021																-0.1841293168942539	1.8369077760794226	-0.6268767070933718	-0.19045383976468958	1.7121868296890674	-0.5777602115043357	-0.1943390575643587	1.5919934548029224	-0.5612443853899878	-0.20164594471875422	1.565320111165463	-0.6244618504285147	-0.1925242162784377	1.5726651294290566	-0.6349793895551199	-0.19296670168172123	1.5875521799170909	-0.5622560302252336	-1.5775930526539417	1.8895840609289762	0.9081838973719011	-0.20923589404554524	2.04896528146503	-0.6213960349563782	-1.7500959387374815	1.8878111704669422	1.1893776181431757	-0.23395403179435326	1.8956687200701612	-0.4715484953811364	-0.23299868150747183	1.8335821538304833	-0.5090206851846583	-0.17060235731667672	1.9857094193246654	-0.6684054267435665	-0.16349945147931863	1.9084931629160202	-0.6887745563937561	-0.16785725476404054	1.8410183091771766	-0.6986955112681389
69	2.3	-0.2050322673860531	1.8323519520416032	-0.5699512951705122	-0.21809547393506437	1.8317836724519587	-0.5121411961924096																-0.18681576464811087	1.8325858564654582	-0.6239910441821903	-0.19069656193219803	1.7134461215312475	-0.5776756963888877	-0.19465266551010071	1.5938181610754787	-0.5609897345557339	-0.2038693440687792	1.565563762723916	-0.6222795174850418	-0.1929642499181349	1.5719106420769933	-0.6344350436665102	-0.19296670168172123	1.5875521799170909	-0.5622560302252336	-0.20065046786629448	1.9840777735280795	-0.5873271722656469	-0.20729165460814636	2.048891961304678	-0.6237237773799101	-1.7521363615807461	1.8899049533883698	1.1918695816123268	-0.23404218971093643	1.8960854604627093	-0.47140596395399187	-0.23623360932497608	1.8319857213986774	-0.5098003559437969	-0.17223167158007183	1.985894092044974	-0.6748421841709469	-0.16635375951108325	1.9067720336071414	-0.6894155672898381	-0.17541228082947002	1.842381457913222	-0.6864694928656043
70	2.3333333333333335	-0.20739233542006213	1.831112894928872	-0.567430117362762	-0.22356887157005575	1.8293012118233067	-0.5106256746848153																-0.1933983355563282	1.8314666850880135	-0.6169146363286214	-0.1920758994880101	1.7109724867041585	-0.5800761561421125	-0.19471429541216534	1.5910946844791443	-0.5606297628535796	-0.19941131974276952	1.5650178787693911	-0.6267171784441099	-0.19214649310463322	1.5729452658617253	-0.6310755988661164	-0.19296670168172123	1.5875521799170909	-0.5622560302252336	-0.2015346074752254	1.9839578263631181	-0.5903541152406856	-0.20723988575028174	2.0488979101345652	-0.6238976858028166	-1.751868038125318	1.8900373830292763	1.191353014913916	-0.23518262191955122	1.8989957350734987	-0.47511690063831824	-0.23628910973730688	1.832694413158543	-0.49752767667748926	-0.1729801379834356	1.9868482381086299	-0.6780193413038172	-0.16647320743725091	1.9080571998705056	-0.6896333037780977	-0.18560026513080524	1.844663264150876	-0.6719048099801608
